<?xml version="1.0" encoding="utf-8"?>
<!-- Generator: Adobe Illustrator 21.1.0, SVG Export Plug-In . SVG Version: 6.00 Build 0)  -->
<svg version="1.1" id="Warstwa_1" xmlns="http://www.w3.org/2000/svg" xmlns:xlink="http://www.w3.org/1999/xlink" x="0px" y="0px"
	 viewBox="0 0 700 200" style="enable-background:new 0 0 700 200;" xml:space="preserve">
<style type="text/css">
	.st0{fill:#4C4B4B;}
	.st1{fill:#C71416;}
	.st2{fill:#C71012;}
</style>
<g>
	<path class="st0" d="M569.4,138.5c-7.7,0-15.5,0-23.2,0c-4.6,0-9.1,0-9.3-6.7c-0.1-6.7,2.8-9.1,9.3-9c13.6,0.1,27.1,0,40.7-0.1
		c4.5-0.1,9.9-0.1,10-6.4c0.1-5.5-4.6-7.7-9.3-8c-10.3-0.6-20.6-0.4-31-0.9c-13.8-0.4-19.4-9.1-19.9-21.4
		c-0.6-12.2,3.9-22.5,17.5-23.5c17.4-1.3,34.8-1,52.2-1.4c6.1-0.1,7.5,3.5,7.7,8.7c0.1,6.1-3.2,7.7-8.5,7.7
		c-13.6,0-27.1-0.1-40.7,0.3c-5.1,0.1-11.3,0.9-10.7,8.1c0.4,5.9,5.8,5.9,10.4,6.1c9,0.1,18.1-0.1,27.1,0.4
		c14.3,0.7,23.3,8.1,23.2,23c-0.3,14.9-7.2,24.3-24.1,23.5C583.7,138.1,576.5,138.5,569.4,138.5z"/>
	<path class="st1" d="M233.2,113.6c0-17.2,0.1-29.3,0-41.3c-0.1-6.4,0.6-11.7,9.1-11.3c8.3,0.4,6.7,6.7,6.7,11.3
		c0.1,17.5,0.3,34.9,0,52.5c-0.1,4.5,3.2,11.2-3.9,13.3c-6.7,2-12.3,0.1-17.1-5.7c-11.6-13.8-23.6-27.1-39.8-45.6
		c0,16.4,0.1,27.4,0,38.4c-0.1,5.9,2.2,13.6-8.7,13.3c-9.4-0.3-7.7-6.8-7.7-12.3c-0.1-17.5-0.1-34.9,0-52.5c0-4.6-2.3-11.2,5.2-12.6
		c5.9-1.2,11.4,0,15.8,5.1C204.7,80.6,217,94.8,233.2,113.6z"/>
	<path class="st2" d="M51.5,108.4c11.9,10.9,20.7,18.8,30.9,28.1c-25.8,5.2-21.2,4.8-32.6-6.8c-11-11.2-21.2-22-41-22
		c-5.4,0-6.2,2.9-6.2-7.5c0-10.3-2.3-8.1,7.8-8.3c12.9-0.3,25.8,0.1,38.7-0.1c5.7-0.1,13.5,0.6,13.2-7.4c-0.3-7.4-8-7-13.8-7.1
		c-11-0.1-22-0.1-32.9-0.1c-13.2,0-13.5,2.2-13.2-8.7c0.3-9.4-1.6-7.7,12.3-7.7c12.3,0,24.5,0,36.8,0c15.2,0,27.2,4.6,28.4,22
		C81,99.8,71.5,107.8,51.5,108.4z"/>
	<path class="st1" d="M293.4,61.7c10.3,0,20.7,0,31,0c11.2,0,7.8-2.2,7.8,8.1c0,9.9,0.4,7.8-8,7.8c-26.2,0-22-2.6-22,25.9
		c0,9-0.1,18.1,0.1,27.1c0.1,7-3.3,8.7-9.6,8.5c-6.2-0.1-7.5-3.3-7.5-8.7c0.1-12.3,0.1-24.5,0.1-36.8c0-16.2,1-16.1-14.5-16.1
		c-18,0-15.9,4.5-16.2-7.4c-0.3-13.3-2.8-8.5,17.2-8.5C279.2,61.9,286.3,61.7,293.4,61.7z"/>
	<g>
		<path class="st1" d="M127.2,77.1c-10.3,0-20.7,0-31,0c-10,0-8.1,2.8-8.1-8c0-10-1.7-8,8.4-8c20,0,40.1,0,60.1,0
			c10.1,0,9.1-0.3,9.1,9.3c0,6.7,0,6.7-9.6,6.7C146.6,76.9,136.9,77.1,127.2,77.1z"/>
		<path class="st1" d="M127.2,107.5c-10.3,0-20.7,0-31,0c-10,0-8.1,2.8-8.1-8c0-10-1.7-8,8.4-8c20,0,40.1,0,60.1,0
			c10.1,0,9.1-0.3,9.1,9.3c0,6.7,0,6.7-9.6,6.7C146.5,107.5,136.9,107.5,127.2,107.5z"/>
		<path class="st1" d="M127.2,138.7c-10.3,0-20.7,0-31,0c-10,0-8.1,2.8-8.1-8c0-10-1.7-8,8.4-8c20,0,40.1,0,60.1,0
			c10.1,0,9.1-0.3,9.1,9.3c0,6.7,0,6.7-9.6,6.7C146.5,138.7,136.9,138.7,127.2,138.7z"/>
	</g>
	<g>
		<path class="st0" d="M405.7,77.4c-10.3,0-20.7,0-31,0c-10,0-8.1,2.8-8.1-8c0-10-1.7-8,8.4-8c20,0,40.1,0,60.1,0
			c10.1,0,9.1-0.3,9.1,9.3c0,6.7,0,6.7-9.6,6.7C424.9,77.4,415.4,77.4,405.7,77.4z"/>
		<path class="st0" d="M405.5,107.9c-10.3,0-20.7,0-31,0c-10,0-8.1,2.8-8.1-8c0-10-1.7-8,8.4-8c20,0,40.1,0,60.1,0
			c10.1,0,9.1-0.3,9.1,9.3c0,6.7,0,6.7-9.6,6.7C424.9,107.8,415.2,107.9,405.5,107.9z"/>
		<path class="st0" d="M405.5,138.9c-10.3,0-20.7,0-31,0c-10,0-8.1,2.8-8.1-8c0-10-1.7-8,8.4-8c20,0,40.1,0,60.1,0
			c10.1,0,9.1-0.3,9.1,9.3c0,6.7,0,6.7-9.6,6.7C424.9,138.9,415.2,138.9,405.5,138.9z"/>
	</g>
	<g>
		<path class="st0" d="M659.1,77.4c-10.3,0-20.7,0-31,0c-10,0-8.1,2.8-8.1-8c0-10-1.7-8,8.4-8c20,0,40.1,0,60.1,0
			c10.1,0,9.1-0.3,9.1,9.3c0,6.7,0,6.7-9.6,6.7C678.5,77.2,668.8,77.4,659.1,77.4z"/>
		<path class="st0" d="M658.9,107.8c-10.3,0-20.7,0-31,0c-10,0-8.1,2.8-8.1-8c0-10-1.7-8,8.4-8c20,0,40.1,0,60.1,0
			c10.1,0,9.1-0.3,9.1,9.3c0,6.7,0,6.7-9.6,6.7C678.4,107.8,668.6,107.8,658.9,107.8z"/>
		<path class="st0" d="M658.9,138.9c-10.3,0-20.7,0-31,0c-10,0-8.1,2.8-8.1-8c0-10-1.7-8,8.4-8c20,0,40.1,0,60.1,0
			c10.1,0,9.1-0.3,9.1,9.3c0,6.7,0,6.7-9.6,6.7C678.4,138.9,668.6,138.9,658.9,138.9z"/>
	</g>
	<rect x="472" y="88.2" class="st0" width="27.7" height="7.2"/>
	<g>
		<path class="st0" d="M528.1,132.7c-28.1,0-28.4-31.7-32.7-36.2c-4.5-4.8-11-6.2-13.9-0.4c-8.4,16.8-4.6,35.2-31.7,35.1
			c11.3-26.1,16.7-40,26.4-62.3c4.6-10.7-0.9-8.3,11.6-8c11.6,0.1,7.4-4.5,13,8.8C510.1,92.1,516.9,107.1,528.1,132.7z"/>
		<polygon class="st0" points="463,139.8 448.8,133.3 462,102.4 477,108.1 		"/>
		<polygon class="st0" points="529.5,131.7 515.5,138.7 499.7,109.1 513.5,100.8 		"/>
	</g>
</g>
</svg>
