<?xml version="1.0" encoding="utf-8"?>
<!-- Generator: Adobe Illustrator 21.1.0, SVG Export Plug-In . SVG Version: 6.00 Build 0)  -->
<svg version="1.1" id="Warstwa_1" xmlns="http://www.w3.org/2000/svg" xmlns:xlink="http://www.w3.org/1999/xlink" x="0px" y="0px"
	 viewBox="0 0 707.1 200" style="enable-background:new 0 0 707.1 200;" xml:space="preserve">
<style type="text/css">
	.st0{fill:none;}
	.st1{fill:#C5090B;}
	.st2{fill:#464646;}
	.st3{fill:#FCFBFB;}
	.st4{fill:#4C4B4B;}
	.st5{fill:#C71416;}
	.st6{fill:#C71012;}
</style>
<rect class="st0" width="195" height="200"/>
<rect x="195.3" class="st0" width="511.8" height="200"/>
<g>
	<path class="st1" d="M108,39.5c13.3,8.4,9.5,25.4,24.3,26.5c14.9,1.1,29.9,0.1,44.9,0.3c11.6,0.1,7.7-8.5,8-14.3
		c0.3-5.6,2.5-12.7-7.9-12.5C156,39.8,134.5,39.5,108,39.5z"/>
	<path class="st2" d="M122.3,159.8c-13.5,0-24.5,0.5-35.4,0.1c-11.9-0.4-7.8,1.1-12.4-8.8c-4.5-9.5-11.3-17.9-15.3-27.7
		c-1.9-4.6,0.9-6.4-10.4-6.1c-5.7,0.2-2.9-0.3-3.5,9.7c-0.3,4.4,0.2,8.9,0,13.3c-0.9,23.7,9.6,20.6-19.7,20.1
		c-26.1-0.4-20.2,6.7-19.9-20.4c0.4-28.8,1-57.8,0.2-86.6C5.5,37.5,2.1,39,19.6,39.1c20.5,0.1,41.1,0.1,61.6,0.8
		c19,0.7,30,9.4,34.7,25.5c5.1,17.6,0.7,30.8-14.9,41.7c-11,7.7-9.7,3.4-2.7,12.8C107.1,131.8,113.6,145.2,122.3,159.8z M58.4,65.8
		c-5.9-0.6-13.4-1.9-13.2,11.7c0.2,11.3,4.9,12.6,14,12.1c9.5-0.5,21,0.8,21.4-12.1C81,65.2,70.1,65.7,58.4,65.8z"/>
	<path class="st1" d="M157.8,130.5c5,0,10-0.1,14.9-0.1c21,0,15.4-5.1,16.4,17.6c0.3,7.6,4.6,8.8-10.1,9c-5,0.1-10.1-0.9-14.9,0.1
		c-22.9,4.7-33.4-7.1-44.5-26.1c-3.7-6.3-11.6-14.3-9.2-18.1c7.6-12,13.4-18.9,20.1-25.3c6.5-6.2,23.7-4.1,37.8-3.7
		c14.6,0.4,12-2.8,11.8,10.7c-0.2,17.4,6,16.7-14.9,16.1c-9.3-0.3-14.9,0.3-24.3-0.2c-11.3-0.6-9-2.9-8.8,8.5
		c0.2,15.2-1,11.7,8.8,11.5C148,130.4,150.6,130.5,157.8,130.5z"/>
	<path class="st3" d="M58.4,65.8c24.9-0.6,22.2-4.2,22.3,11.7c0.1,17.7-1.1,10.5-21.4,12.1c-18.7,1.5-14.4,0.1-14-12.1
		C45.7,64,41.7,65.5,58.4,65.8z"/>
</g>
<g>
	<path class="st4" d="M602.6,126.6c-5.3,0-10.7,0-16,0c-3.2,0-6.3,0-6.4-4.6c-0.1-4.6,1.9-6.3,6.4-6.2c9.4,0.1,18.7,0,28.1-0.1
		c3.1-0.1,6.8-0.1,6.9-4.4c0.1-3.8-3.2-5.3-6.4-5.5c-7.1-0.4-14.2-0.3-21.4-0.6c-9.5-0.3-13.4-6.3-13.7-14.8
		c-0.4-8.4,2.7-15.5,12.1-16.2c12-0.9,24-0.7,36-1c4.2-0.1,5.2,2.4,5.3,6c0.1,4.2-2.2,5.3-5.9,5.3c-9.4,0-18.7-0.1-28.1,0.2
		c-3.5,0.1-7.8,0.6-7.4,5.6c0.3,4.1,4,4.1,7.2,4.2c6.2,0.1,12.5-0.1,18.7,0.3c9.9,0.5,16.1,5.6,16,15.9c-0.2,10.3-5,16.8-16.6,16.2
		C612.5,126.3,607.5,126.6,602.6,126.6z"/>
	<path class="st5" d="M370.6,109.4c0-11.9,0.1-20.2,0-28.5c-0.1-4.4,0.4-8.1,6.3-7.8c5.7,0.3,4.6,4.6,4.6,7.8
		c0.1,12.1,0.2,24.1,0,36.2c-0.1,3.1,2.2,7.7-2.7,9.2c-4.6,1.4-8.5,0.1-11.8-3.9c-8-9.5-16.3-18.7-27.5-31.5c0,11.3,0.1,18.9,0,26.5
		c-0.1,4.1,1.5,9.4-6,9.2c-6.5-0.2-5.3-4.7-5.3-8.5c-0.1-12.1-0.1-24.1,0-36.2c0-3.2-1.6-7.7,3.6-8.7c4.1-0.8,7.9,0,10.9,3.5
		C350.9,86.6,359.4,96.4,370.6,109.4z"/>
	<path class="st6" d="M245.2,105.8c8.2,7.5,14.3,13,21.3,19.4c-17.8,3.6-14.6,3.3-22.5-4.7c-7.6-7.7-14.6-15.2-28.3-15.2
		c-3.7,0-4.3,2-4.3-5.2c0-7.1-1.6-5.6,5.4-5.7c8.9-0.2,17.8,0.1,26.7-0.1c3.9-0.1,9.3,0.4,9.1-5.1c-0.2-5.1-5.5-4.8-9.5-4.9
		c-7.6-0.1-15.2-0.1-22.7-0.1c-9.1,0-9.3,1.5-9.1-6c0.2-6.5-1.1-5.3,8.5-5.3c8.5,0,16.9,0,25.4,0c10.5,0,18.8,3.2,19.6,15.2
		C265.5,99.9,259,105.4,245.2,105.8z"/>
	<path class="st5" d="M412.1,73.6c7.1,0,14.3,0,21.4,0c7.7,0,5.4-1.5,5.4,5.6c0,6.8,0.3,5.4-5.5,5.4c-18.1,0-15.2-1.8-15.2,17.9
		c0,6.2-0.1,12.5,0.1,18.7c0.1,4.8-2.3,6-6.6,5.9c-4.3-0.1-5.2-2.3-5.2-6c0.1-8.5,0.1-16.9,0.1-25.4c0-11.2,0.7-11.1-10-11.1
		c-12.4,0-11,3.1-11.2-5.1c-0.2-9.2-1.9-5.9,11.9-5.9C402.3,73.7,407.2,73.6,412.1,73.6z"/>
	<g>
		<path class="st5" d="M297.4,84.2c-7.1,0-14.3,0-21.4,0c-6.9,0-5.6,1.9-5.6-5.5c0-6.9-1.2-5.5,5.8-5.5c13.8,0,27.7,0,41.5,0
			c7,0,6.3-0.2,6.3,6.4c0,4.6,0,4.6-6.6,4.6C310.8,84.1,304.1,84.2,297.4,84.2z"/>
		<path class="st5" d="M297.4,105.2c-7.1,0-14.3,0-21.4,0c-6.9,0-5.6,1.9-5.6-5.5c0-6.9-1.2-5.5,5.8-5.5c13.8,0,27.7,0,41.5,0
			c7,0,6.3-0.2,6.3,6.4c0,4.6,0,4.6-6.6,4.6C310.7,105.2,304.1,105.2,297.4,105.2z"/>
		<path class="st5" d="M297.4,126.7c-7.1,0-14.3,0-21.4,0c-6.9,0-5.6,1.9-5.6-5.5c0-6.9-1.2-5.5,5.8-5.5c13.8,0,27.7,0,41.5,0
			c7,0,6.3-0.2,6.3,6.4c0,4.6,0,4.6-6.6,4.6C310.7,126.7,304.1,126.7,297.4,126.7z"/>
	</g>
	<g>
		<path class="st4" d="M489.6,84.4c-7.1,0-14.3,0-21.4,0c-6.9,0-5.6,1.9-5.6-5.5c0-6.9-1.2-5.5,5.8-5.5c13.8,0,27.7,0,41.5,0
			c7,0,6.3-0.2,6.3,6.4c0,4.6,0,4.6-6.6,4.6C502.9,84.4,496.3,84.4,489.6,84.4z"/>
		<path class="st4" d="M489.5,105.5c-7.1,0-14.3,0-21.4,0c-6.9,0-5.6,1.9-5.6-5.5c0-6.9-1.2-5.5,5.8-5.5c13.8,0,27.7,0,41.5,0
			c7,0,6.3-0.2,6.3,6.4c0,4.6,0,4.6-6.6,4.6C502.9,105.4,496.2,105.5,489.5,105.5z"/>
		<path class="st4" d="M489.5,126.9c-7.1,0-14.3,0-21.4,0c-6.9,0-5.6,1.9-5.6-5.5c0-6.9-1.2-5.5,5.8-5.5c13.8,0,27.7,0,41.5,0
			c7,0,6.3-0.2,6.3,6.4c0,4.6,0,4.6-6.6,4.6C502.9,126.9,496.2,126.9,489.5,126.9z"/>
	</g>
	<g>
		<path class="st4" d="M664.5,84.4c-7.1,0-14.3,0-21.4,0c-6.9,0-5.6,1.9-5.6-5.5c0-6.9-1.2-5.5,5.8-5.5c13.8,0,27.7,0,41.5,0
			c7,0,6.3-0.2,6.3,6.4c0,4.6,0,4.6-6.6,4.6C677.9,84.3,671.2,84.4,664.5,84.4z"/>
		<path class="st4" d="M664.4,105.4c-7.1,0-14.3,0-21.4,0c-6.9,0-5.6,1.9-5.6-5.5c0-6.9-1.2-5.5,5.8-5.5c13.8,0,27.7,0,41.5,0
			c7,0,6.3-0.2,6.3,6.4c0,4.6,0,4.6-6.6,4.6C677.8,105.4,671.1,105.4,664.4,105.4z"/>
		<path class="st4" d="M664.4,126.9c-7.1,0-14.3,0-21.4,0c-6.9,0-5.6,1.9-5.6-5.5c0-6.9-1.2-5.5,5.8-5.5c13.8,0,27.7,0,41.5,0
			c7,0,6.3-0.2,6.3,6.4c0,4.6,0,4.6-6.6,4.6C677.8,126.9,671.1,126.9,664.4,126.9z"/>
	</g>
	<rect x="535.4" y="91.9" class="st4" width="19.1" height="5"/>
	<g>
		<path class="st4" d="M574.1,122.6c-19.4,0-19.6-21.9-22.6-25c-3.1-3.3-7.6-4.3-9.6-0.3c-5.8,11.6-3.2,24.3-21.9,24.2
			c7.8-18,11.5-27.6,18.2-43c3.2-7.4-0.6-5.7,8-5.5c8,0.1,5.1-3.1,9,6.1C561.7,94.6,566.4,104.9,574.1,122.6z"/>
		<polygon class="st4" points="529.2,127.5 519.4,123 528.5,101.7 538.8,105.6 		"/>
		<polygon class="st4" points="575.1,121.9 565.4,126.7 554.5,106.3 564,100.6 		"/>
	</g>
</g>
</svg>
