<?xml version="1.0" encoding="utf-8"?>
<!-- Generator: Adobe Illustrator 21.1.0, SVG Export Plug-In . SVG Version: 6.00 Build 0)  -->
<svg version="1.1" id="Warstwa_1" xmlns="http://www.w3.org/2000/svg" xmlns:xlink="http://www.w3.org/1999/xlink" x="0px" y="0px"
	 viewBox="0 0 173.2 200" style="enable-background:new 0 0 173.2 200;" xml:space="preserve">
<style type="text/css">
	.st0{fill:#C5090B;}
	.st1{fill:#464646;}
	.st2{fill:#FCFBFB;}
</style>
<g>
	<path class="st0" d="M96.2,45.2c12.1,7.6,8.6,23.1,22.1,24c13.5,1,27.2,0.1,40.8,0.2c10.5,0.1,6.9-7.7,7.2-13
		c0.3-5,2.3-11.5-7.1-11.4C139.6,45.4,120.2,45.2,96.2,45.2z"/>
	<path class="st1" d="M109.1,154.2c-12.3,0-22.2,0.4-32.1,0.1c-10.8-0.3-7.1,1-11.3-8c-4-8.7-10.3-16.2-13.9-25.1
		c-1.7-4.2,0.9-5.8-9.4-5.5c-5.2,0.2-2.6-0.3-3.2,8.8c-0.2,4,0.2,8.1,0,12.1c-0.8,21.5,8.7,18.6-17.9,18.2
		c-23.7-0.4-18.4,6.1-18-18.5C3.8,110.2,4.3,84,3.6,57.8C3.2,43.3,0.1,44.7,15.9,44.7c18.6,0.1,37.3,0.1,55.9,0.7
		C89,46.1,99,53.9,103.2,68.6c4.6,16,0.6,28-13.5,37.9c-10,7-8.8,3.1-2.4,11.7C95.3,128.9,101.2,141,109.1,154.2z M51.1,69
		c-5.3-0.6-12.2-1.7-11.9,10.6c0.2,10.2,4.4,11.5,12.7,11c8.6-0.5,19.1,0.7,19.4-11C71.7,68.4,61.7,68.9,51.1,69z"/>
	<path class="st0" d="M141.3,127.7c4.5,0,9.1-0.1,13.5-0.1c19.1,0,14-4.6,14.9,16c0.3,6.9,4.2,8-9.2,8.2c-4.5,0.1-9.2-0.8-13.5,0.1
		c-20.7,4.3-30.3-6.5-40.4-23.6c-3.4-5.7-10.5-13-8.3-16.4c6.9-10.9,12.2-17.2,18.2-22.9c5.9-5.6,21.5-3.8,34.2-3.4
		c13.3,0.4,10.9-2.5,10.7,9.7c-0.2,15.7,5.4,15.2-13.5,14.6c-8.5-0.2-13.5,0.3-22.1-0.2c-10.2-0.6-8.1-2.7-8,7.7
		c0.2,13.8-0.9,10.6,8,10.4C132.4,127.6,134.8,127.7,141.3,127.7z"/>
	<path class="st2" d="M51.1,69c22.6-0.5,20.1-3.8,20.2,10.6c0.1,16.1-1,9.5-19.4,11c-17,1.4-13.1,0.1-12.7-11
		C39.6,67.3,36,68.7,51.1,69z"/>
</g>
</svg>
